Coordinates
version=1
nRows=6
nColumns=38
inDegrees=yes

Units are S.I. units (second, meters, Newtons, ...)
Angles are in degrees.

endheader
time	pelvis_tilt	pelvis_list	pelvis_rotation	pelvis_tx	pelvis_ty	pelvis_tz	hip_flexion_r	hip_adduction_r	hip_rotation_r	knee_angle_r	ankle_angle_r	subtalar_angle_r	mtp_angle_r	hip_flexion_l	hip_adduction_l	hip_rotation_l	knee_angle_l	ankle_angle_l	subtalar_angle_l	mtp_angle_l	lumbar_extension	lumbar_bending	lumbar_rotation	arm_flex_r	arm_add_r	arm_rot_r	elbow_flex_r	pro_sup_r	wrist_flex_r	wrist_dev_r	arm_flex_l	arm_add_l	arm_rot_l	elbow_flex_l	pro_sup_l	wrist_flex_l	wrist_dev_l
      0.96000000	     -2.08321798	     -3.10251923	      2.14350783	      1.29092870	      0.94300652	      0.01059931	     18.26627272	      5.63788037	     -2.28161903	    -20.18963415	      7.23806029	      0.00000000	      0.00000000	     21.87584467	     -9.27302094	     -5.93527317	    -69.96031131	    -14.74489868	      0.00000000	      0.00000000	     -3.64253169	      1.50269041	      7.37236041	      8.27880133	    -12.24689098	      5.34260915	     38.65465476	    111.00890717	      0.00000000	      0.00000000	     -1.22056023	     -8.96203538	    -22.20769845	     15.59019685	    113.32192849	      0.00000000	      0.00000000
      0.96500000	     -2.17038131	     -2.86595897	      2.04635255	      1.29528165	      0.94368436	      0.01069860	     17.96781202	      5.42018965	     -2.16677803	    -20.05235106	      7.41036940	      0.00000000	      0.00000000	     22.67163408	     -8.92203755	     -5.96378875	    -70.16165527	    -14.21860063	      0.00000000	      0.00000000	     -3.62295593	      1.25361612	      7.54703524	      8.63585251	    -12.31307651	      5.40618439	     38.94093380	    110.91268035	      0.00000000	      0.00000000	     -1.39960467	     -8.98644484	    -22.41017050	     15.65577419	    113.19928576	      0.00000000	      0.00000000
      0.97000000	     -2.20685626	     -2.72614127	      1.93793669	      1.29971761	      0.94430724	      0.01087763	     17.60873815	      5.30743477	     -2.09164865	    -19.89411779	      7.55622049	      0.00000000	      0.00000000	     23.44712747	     -8.68773991	     -5.96886804	    -70.37995658	    -13.58548586	      0.00000000	      0.00000000	     -3.63915428	      1.10173158	      7.70812331	      9.01201219	    -12.37153110	      5.46660928	     39.20789416	    110.82079492	      0.00000000	      0.00000000	     -1.61551434	     -9.00753701	    -22.52585456	     15.66049377	    113.12472831	      0.00000000	      0.00000000
      0.97500000	     -2.22913102	     -2.60792732	      1.84431659	      1.30411505	      0.94492998	      0.01106495	     17.23379190	      5.20940415	     -2.07089741	    -19.70492367	      7.64606062	      0.00000000	      0.00000000	     24.16358395	     -8.48102381	     -5.98844711	    -70.47916042	    -13.30123513	      0.00000000	      0.00000000	     -3.68151710	      0.96779606	      7.84559834	      9.40482415	    -12.40941187	      5.49747950	     39.45239769	    110.76573060	      0.00000000	      0.00000000	     -1.85909788	     -9.05267814	    -22.53398388	     15.55871267	    113.12905298	      0.00000000	      0.00000000
      0.98000000	     -2.21321308	     -2.53674148	      1.74556502	      1.30854163	      0.94556478	      0.01129287	     16.82438048	      5.14841005	     -2.12646925	    -19.56164333	      7.73973675	      0.00000000	      0.00000000	     24.81811906	     -8.35410300	     -6.02875757	    -70.49555410	    -13.19144286	      0.00000000	      0.00000000	     -3.75237235	      0.89072411	      8.07210970	      9.76528418	    -12.47524777	      5.48708794	     39.59816307	    110.75008353	      0.00000000	      0.00000000	     -1.99409943	     -9.09983414	    -22.54694437	     15.52345262	    113.12800440	      0.00000000	      0.00000000
      0.98500000	     -2.33660873	     -2.31863246	      1.66678186	      1.31286852	      0.94612502	      0.01155084	     16.49309231	      4.97527989	     -1.86390791	    -19.29255117	      7.98673924	      0.00000000	      0.00000000	     25.59793624	     -8.04430356	     -6.11009214	    -70.45832679	    -12.35005778	      0.00000000	      0.00000000	     -3.70099066	      0.63214818	      8.15760135	     10.08848921	    -12.46918694	      5.51297779	     40.00826427	    110.66131535	      0.00000000	      0.00000000	     -2.22712290	     -9.15668159	    -22.59160025	     15.64557450	    113.12448393	      0.00000000	      0.00000000
